<?xml version="1.0" encoding="UTF-8" standalone="no"?><!DOCTYPE svg PUBLIC "-//W3C//DTD SVG 1.1//EN" "http://www.w3.org/Graphics/SVG/1.1/DTD/svg11.dtd"><svg width="1024px" height="1024px" version="1.1" xmlns="http://www.w3.org/2000/svg" xmlns:xlink="http://www.w3.org/1999/xlink" xml:space="preserve" xmlns:serif="http://www.serif.com/" style="fill-rule:evenodd;clip-rule:evenodd;stroke-linecap:round;stroke-linejoin:round;stroke-miterlimit:1.5;"><g><path d="M899,298.144l0,427.712c0,95.561 -77.583,173.144 -173.144,173.144l-427.712,0c-95.561,0 -173.144,-77.583 -173.144,-173.144l0,-427.712c0,-95.561 77.583,-173.144 173.144,-173.144l427.712,-0c95.561,-0 173.144,77.583 173.144,173.144Z" style="fill:#151515;stroke:#f4c000;stroke-width:27.4px;"/><path d="M342.218,762.094l-0,-500.188l338.86,-0l0.704,500.188l-52.837,0l-0.704,-450.874l-90.175,0l0,450.874l-52.837,0l0,-450.874l-90.174,0l-0,450.874l-52.837,0Z" style="fill:#f4c000;fill-rule:nonzero;"/></g></svg>